<svg width="26" height="33" viewBox="0 0 26 33" fill="none" xmlns="http://www.w3.org/2000/svg">
<path d="M20.0439 10.1804C18.202 8.90694 16.0537 8.16821 13.8301 8.04364C11.6064 7.91906 9.39137 8.41334 7.42315 9.47336C5.45494 10.5334 3.80795 12.119 2.65924 14.0598C1.51054 16.0007 0.903564 18.2233 0.903564 20.4887C0.903564 22.7541 1.51054 24.9768 2.65924 26.9176C3.80795 28.8584 5.45494 30.4441 7.42315 31.5041C9.39137 32.5641 11.6064 33.0584 13.8301 32.9338C16.0537 32.8092 18.202 32.0705 20.0439 30.797V32.3433H25.433V0.809082H20.0439V10.1804ZM13.1347 26.8613C11.8957 26.8613 10.6846 26.4876 9.65443 25.7874C8.62428 25.0872 7.82138 24.092 7.34725 22.9276C6.87313 21.7633 6.74907 20.482 6.99078 19.2459C7.23249 18.0098 7.8291 16.8744 8.70517 15.9832C9.58124 15.0921 10.6974 14.4852 11.9126 14.2393C13.1277 13.9934 14.3872 14.1196 15.5319 14.6019C16.6765 15.0842 17.6549 15.901 18.3432 16.9489C19.0315 17.9968 19.3989 19.2288 19.3989 20.4891C19.3988 21.326 19.2367 22.1546 18.9217 22.9277C18.6068 23.7009 18.1452 24.4033 17.5634 24.995C16.9815 25.5866 16.2908 26.0559 15.5307 26.376C14.7705 26.6961 13.9559 26.8608 13.1332 26.8606L13.1347 26.8613Z" fill="white"/>
</svg>
